<svg width="19" height="10" viewBox="0 0 19 10" fill="none" xmlns="http://www.w3.org/2000/svg">
<path d="M12.3767 8.77688L18.6054 2.37803C18.8581 2.11683 19 1.7635 19 1.3952C19 1.0269 18.8581 0.673568 18.6054 0.412368C18.4792 0.281703 18.3292 0.177991 18.1638 0.107215C17.9984 0.0364392 17.8211 -5.15333e-08 17.6419 -5.93639e-08C17.4628 -6.71944e-08 17.2854 0.0364392 17.12 0.107215C16.9547 0.177991 16.8046 0.281703 16.6784 0.412368L10.4633 6.82516C10.3372 6.95583 10.1871 7.05954 10.0217 7.13032C9.85635 7.20109 9.67899 7.23753 9.49984 7.23753C9.3207 7.23753 9.14333 7.20109 8.97797 7.13032C8.8126 7.05954 8.66252 6.95583 8.53637 6.82516L2.32125 0.412368C2.06752 0.149856 1.72268 0.00164415 1.36257 0.000336923C1.00247 -0.000970302 0.656613 0.144735 0.401083 0.405398C0.145553 0.666061 0.00128106 1.02033 8.59746e-06 1.39027C-0.00126386 1.76021 0.140568 2.11552 0.394299 2.37803L6.62298 8.77688C7.3863 9.56008 8.42102 10 9.49984 10C10.5787 10 11.6134 9.56008 12.3767 8.77688Z" fill="white"/>
</svg>
