<svg width="16" height="18" viewBox="0 0 16 18" fill="none" xmlns="http://www.w3.org/2000/svg">
<path d="M7.70021 5.70557C7.13598 5.70557 6.58442 5.87288 6.11528 6.18635C5.64614 6.49982 5.28049 6.94536 5.06457 7.46665C4.84865 7.98793 4.79215 8.56153 4.90223 9.11492C5.0123 9.66831 5.28401 10.1766 5.68298 10.5756C6.08195 10.9746 6.59027 11.2463 7.14366 11.3563C7.69705 11.4664 8.27065 11.4099 8.79193 11.194C9.31321 10.9781 9.75876 10.6124 10.0722 10.1433C10.3857 9.67415 10.553 9.12259 10.553 8.55836C10.553 7.80176 10.2524 7.07613 9.71744 6.54113C9.18244 6.00613 8.45682 5.70557 7.70021 5.70557ZM7.70021 9.98476C7.4181 9.98476 7.14232 9.90111 6.90775 9.74437C6.67318 9.58764 6.49035 9.36486 6.38239 9.10422C6.27443 8.84358 6.24618 8.55678 6.30122 8.28009C6.35626 8.00339 6.49211 7.74923 6.6916 7.54975C6.89108 7.35026 7.14524 7.21441 7.42194 7.15937C7.69863 7.10434 7.98543 7.13258 8.24607 7.24054C8.50671 7.3485 8.72948 7.53133 8.88622 7.7659C9.04295 8.00047 9.12661 8.27625 9.12661 8.55836C9.12661 8.93667 8.97633 9.29948 8.70883 9.56698C8.44133 9.83448 8.07852 9.98476 7.70021 9.98476Z" fill="#464C53"/>
<path d="M14.3287 9.91347L14.012 9.73089C14.1546 8.95525 14.1546 8.16011 14.012 7.38447L14.3287 7.20189C14.5722 7.0614 14.7856 6.87432 14.9568 6.65134C15.1281 6.42836 15.2537 6.17384 15.3265 5.90231C15.3994 5.63078 15.418 5.34756 15.3814 5.06882C15.3448 4.79008 15.2537 4.52128 15.1132 4.27777C14.9727 4.03426 14.7856 3.8208 14.5626 3.64959C14.3396 3.47837 14.0851 3.35276 13.8136 3.27991C13.5421 3.20706 13.2589 3.1884 12.9801 3.22501C12.7014 3.26161 12.4326 3.35276 12.1891 3.49325L11.8717 3.67654C11.2723 3.16441 10.5834 2.76739 9.83978 2.50547V2.1396C9.83978 1.57214 9.61436 1.02793 9.21311 0.626674C8.81185 0.225421 8.26764 0 7.70018 0C7.13273 0 6.58851 0.225421 6.18726 0.626674C5.786 1.02793 5.56058 1.57214 5.56058 2.1396V2.50547C4.81699 2.76833 4.12837 3.16632 3.52939 3.6794L3.21059 3.49468C2.7188 3.21095 2.13443 3.13421 1.58605 3.28133C1.03767 3.42846 0.570202 3.7874 0.286474 4.2792C0.00274517 4.77099 -0.0739973 5.35536 0.0731286 5.90373C0.220255 6.45211 0.579197 6.91959 1.07099 7.20331L1.38765 7.38589C1.24509 8.16154 1.24509 8.95667 1.38765 9.73232L1.07099 9.9149C0.579197 10.1986 0.220255 10.6661 0.0731286 11.2145C-0.0739973 11.7629 0.00274517 12.3472 0.286474 12.839C0.570202 13.3308 1.03767 13.6898 1.58605 13.8369C2.13443 13.984 2.7188 13.9073 3.21059 13.6235L3.52797 13.4402C4.1276 13.9525 4.8167 14.3495 5.56058 14.6113V14.9772C5.56058 15.5446 5.786 16.0889 6.18726 16.4901C6.58851 16.8914 7.13273 17.1168 7.70018 17.1168C8.26764 17.1168 8.81185 16.8914 9.21311 16.4901C9.61436 16.0889 9.83978 15.5446 9.83978 14.9772V14.6113C10.5834 14.3485 11.272 13.9505 11.871 13.4374L12.1898 13.6214C12.6816 13.9051 13.2659 13.9819 13.8143 13.8347C14.3627 13.6876 14.8302 13.3287 15.1139 12.8369C15.3976 12.3451 15.4744 11.7607 15.3272 11.2123C15.1801 10.664 14.8212 10.1965 14.3294 9.91276L14.3287 9.91347ZM12.5114 7.22043C12.7529 8.09557 12.7529 9.01979 12.5114 9.89493C12.4693 10.0472 12.4789 10.2093 12.5388 10.3555C12.5987 10.5018 12.7055 10.624 12.8424 10.703L13.6155 11.1494C13.7794 11.244 13.899 11.3998 13.948 11.5826C13.997 11.7654 13.9714 11.9601 13.8768 12.124C13.7823 12.2879 13.6265 12.4076 13.4437 12.4566C13.2609 12.5056 13.0662 12.48 12.9023 12.3854L12.1277 11.9375C11.9907 11.8582 11.8312 11.8267 11.6743 11.848C11.5174 11.8693 11.3721 11.9422 11.2612 12.0552C10.6264 12.7033 9.82664 13.1656 8.94828 13.3925C8.79497 13.4319 8.65912 13.5212 8.56215 13.6463C8.46518 13.7714 8.41259 13.9252 8.41267 14.0835V14.9772C8.41267 15.1663 8.33753 15.3477 8.20378 15.4815C8.07003 15.6152 7.88862 15.6904 7.69947 15.6904C7.51032 15.6904 7.32891 15.6152 7.19516 15.4815C7.06141 15.3477 6.98627 15.1663 6.98627 14.9772V14.0843C6.98635 13.926 6.93376 13.7721 6.83679 13.647C6.73981 13.5219 6.60397 13.4326 6.45066 13.3932C5.57224 13.1654 4.77273 12.7021 4.13846 12.0531C4.02758 11.9401 3.88224 11.8671 3.72535 11.8458C3.56846 11.8245 3.40894 11.856 3.27193 11.9354L2.49882 12.3826C2.41768 12.4301 2.32793 12.4612 2.23474 12.4739C2.14155 12.4867 2.04676 12.4809 1.95583 12.4568C1.86489 12.4328 1.77962 12.391 1.7049 12.3338C1.63018 12.2767 1.56751 12.2054 1.52048 12.1239C1.47345 12.0425 1.44299 11.9525 1.43087 11.8592C1.41875 11.766 1.42519 11.6712 1.44984 11.5804C1.47448 11.4897 1.51684 11.4047 1.57446 11.3303C1.63209 11.256 1.70385 11.1938 1.78562 11.1473L2.55873 10.7008C2.69563 10.6219 2.80241 10.4996 2.86231 10.3534C2.92221 10.2071 2.93182 10.0451 2.88965 9.89279C2.64813 9.01765 2.64813 8.09343 2.88965 7.21829C2.93106 7.0663 2.92099 6.90486 2.86099 6.7592C2.801 6.61353 2.69446 6.49183 2.55801 6.41309L1.78491 5.96663C1.62101 5.87205 1.50139 5.71624 1.45237 5.53347C1.40335 5.3507 1.42894 5.15594 1.52352 4.99204C1.61809 4.82814 1.77391 4.70852 1.95668 4.6595C2.13945 4.61048 2.3342 4.63608 2.49811 4.73065L3.27264 5.17854C3.40927 5.25807 3.56846 5.28995 3.72518 5.26917C3.88191 5.24838 4.02728 5.17611 4.13846 5.06372C4.77327 4.41566 5.57301 3.95328 6.45137 3.72647C6.60516 3.68693 6.74135 3.5972 6.83838 3.4715C6.9354 3.3458 6.9877 3.19131 6.98698 3.03252V2.1396C6.98698 1.95045 7.06212 1.76904 7.19587 1.63529C7.32963 1.50154 7.51103 1.4264 7.70018 1.4264C7.88933 1.4264 8.07074 1.50154 8.20449 1.63529C8.33824 1.76904 8.41338 1.95045 8.41338 2.1396V3.03252C8.4133 3.19082 8.46589 3.34465 8.56286 3.46977C8.65984 3.59489 8.79568 3.6842 8.94899 3.72361C9.82766 3.95123 10.6274 4.41462 11.2619 5.06372C11.3728 5.17673 11.5181 5.24964 11.675 5.27095C11.8319 5.29225 11.9914 5.26075 12.1284 5.18139L12.9015 4.73422C12.9827 4.68665 13.0724 4.6556 13.1656 4.64286C13.2588 4.63012 13.3536 4.63593 13.4445 4.65997C13.5355 4.68402 13.6208 4.72581 13.6955 4.78294C13.7702 4.84007 13.8329 4.91142 13.8799 4.99288C13.9269 5.07433 13.9574 5.16428 13.9695 5.25756C13.9816 5.35083 13.9752 5.44558 13.9505 5.53635C13.9259 5.62712 13.8835 5.71212 13.8259 5.78645C13.7683 5.86079 13.6965 5.92299 13.6147 5.96948L12.8416 6.41594C12.7055 6.4949 12.5992 6.61669 12.5395 6.76234C12.4798 6.90799 12.4699 7.0693 12.5114 7.22114V7.22043Z" fill="#464C53"/>
</svg>
