<svg width="11" height="10" viewBox="0 0 11 10" fill="none" xmlns="http://www.w3.org/2000/svg">
<g clip-path="url(#clip0_29_433)">
<path d="M5.95834 0.416722C5.95834 0.306215 6.00663 0.200234 6.09258 0.122094C6.17853 0.0439537 6.29511 5.50517e-05 6.41667 5.50517e-05C7.63184 0.00126822 8.79685 0.440645 9.6561 1.22178C10.5154 2.00292 10.9987 3.06203 11 4.16672C11 4.27723 10.9517 4.38321 10.8658 4.46135C10.7798 4.53949 10.6632 4.58339 10.5417 4.58339C10.4201 4.58339 10.3035 4.53949 10.2176 4.46135C10.1316 4.38321 10.0833 4.27723 10.0833 4.16672C10.0822 3.28297 9.69559 2.4357 9.00819 1.8108C8.32079 1.18589 7.3888 0.834381 6.41667 0.833388C6.29511 0.833388 6.17853 0.78949 6.09258 0.71135C6.00663 0.633209 5.95834 0.527229 5.95834 0.416722ZM6.41667 2.50006C6.9029 2.50006 7.36922 2.67565 7.71303 2.98821C8.05685 3.30077 8.25 3.72469 8.25 4.16672C8.25 4.27723 8.29829 4.38321 8.38424 4.46135C8.4702 4.53949 8.58678 4.58339 8.70834 4.58339C8.82989 4.58339 8.94647 4.53949 9.03243 4.46135C9.11838 4.38321 9.16667 4.27723 9.16667 4.16672C9.16594 3.50388 8.87598 2.86838 8.36041 2.39969C7.84484 1.93099 7.14579 1.66738 6.41667 1.66672C6.29511 1.66672 6.17853 1.71062 6.09258 1.78876C6.00663 1.8669 5.95834 1.97288 5.95834 2.08339C5.95834 2.1939 6.00663 2.29988 6.09258 2.37802C6.17853 2.45616 6.29511 2.50006 6.41667 2.50006ZM10.5843 6.97464C10.8499 7.21677 10.9991 7.54477 10.9991 7.88672C10.9991 8.22867 10.8499 8.55667 10.5843 8.79881L10.1672 9.23589C6.41346 12.503 -2.72112 4.20089 0.817212 0.777555L1.3443 0.360888C1.61094 0.126171 1.96851 -0.0036745 2.33966 -0.000555431C2.71081 0.00256364 3.06568 0.138396 3.3275 0.377555C3.34171 0.390472 4.191 1.39339 4.191 1.39339C4.44301 1.63407 4.58329 1.95378 4.5827 2.28606C4.5821 2.61834 4.44066 2.93763 4.1878 3.17756L3.65705 3.78422C3.95077 4.43302 4.38262 5.02266 4.92778 5.51926C5.47294 6.01586 6.12067 6.40964 6.83375 6.67797L7.50521 6.19256C7.76917 5.96285 8.12032 5.83443 8.48572 5.83396C8.85112 5.8335 9.20267 5.96103 9.46734 6.19006C9.46734 6.19006 10.5701 6.96172 10.5843 6.97464ZM9.95363 7.58047C9.95363 7.58047 8.85684 6.81339 8.84263 6.80047C8.7482 6.71536 8.62062 6.66761 8.48765 6.66761C8.35468 6.66761 8.22709 6.71536 8.13267 6.80047C8.12029 6.81214 7.19584 7.48172 7.19584 7.48172C7.13354 7.5268 7.0594 7.55635 6.98072 7.56746C6.90204 7.57856 6.82153 7.57084 6.74713 7.54505C5.82334 7.23238 4.98426 6.74286 4.28672 6.10967C3.58918 5.47648 3.04948 4.7144 2.70417 3.87506C2.67355 3.8065 2.66357 3.73176 2.67525 3.65853C2.68693 3.5853 2.71985 3.51622 2.77063 3.45839C2.77063 3.45839 3.50717 2.61756 3.51955 2.60672C3.61317 2.52088 3.6657 2.4049 3.6657 2.28401C3.6657 2.16313 3.61317 2.04714 3.51955 1.96131C3.50534 1.94881 2.66155 0.950888 2.66155 0.950888C2.56571 0.872766 2.44063 0.830928 2.31195 0.83395C2.18327 0.836971 2.06074 0.884623 1.96946 0.967138L1.44238 1.38381C-1.14354 4.21047 6.77234 11.0076 9.49713 8.66672L9.91467 8.22922C10.0125 8.14683 10.0713 8.03308 10.0786 7.91201C10.0858 7.79095 10.041 7.67206 9.95363 7.58047Z" fill="#464C53"/>
</g>
<defs>
<clipPath id="clip0_29_433">
<rect width="11" height="10" fill="white"/>
</clipPath>
</defs>
</svg>
