<svg width="17" height="14" viewBox="0 0 17 14" fill="none" xmlns="http://www.w3.org/2000/svg">
<path d="M14.8829 7.2968V6.3C14.8829 4.62914 14.2105 3.02671 13.0134 1.84523C11.8164 0.663748 10.1929 0 8.5 0C6.80714 0 5.18361 0.663748 3.98657 1.84523C2.78954 3.02671 2.11705 4.62914 2.11705 6.3V7.2968C1.3732 7.62008 0.764435 8.18577 0.392679 8.89915C0.0209224 9.61253 -0.0912627 10.4303 0.0749043 11.2156C0.241071 12.0008 0.675504 12.7059 1.30547 13.2128C1.93544 13.7197 2.72271 13.9976 3.53548 14C3.91168 14 4.27246 13.8525 4.53847 13.5899C4.80448 13.3274 4.95392 12.9713 4.95392 12.6V8.4C4.95392 8.0287 4.80448 7.6726 4.53847 7.41005C4.27246 7.1475 3.91168 7 3.53548 7V6.3C3.53548 5.00044 4.05853 3.7541 4.98956 2.83518C5.92058 1.91625 7.18333 1.4 8.5 1.4C9.81667 1.4 11.0794 1.91625 12.0104 2.83518C12.9415 3.7541 13.4645 5.00044 13.4645 6.3V7C13.0883 7 12.7275 7.1475 12.4615 7.41005C12.1955 7.6726 12.0461 8.0287 12.0461 8.4V12.6H9.91843C9.73034 12.6 9.54994 12.6737 9.41694 12.805C9.28394 12.9363 9.20922 13.1143 9.20922 13.3C9.20922 13.4857 9.28394 13.6637 9.41694 13.795C9.54994 13.9263 9.73034 14 9.91843 14H13.4645C14.2773 13.9976 15.0646 13.7197 15.6945 13.2128C16.3245 12.7059 16.7589 12.0008 16.9251 11.2156C17.0913 10.4303 16.9791 9.61253 16.6073 8.89915C16.2356 8.18577 15.6268 7.62008 14.8829 7.2968ZM3.53548 12.6C2.9712 12.6 2.43002 12.3788 2.03101 11.9849C1.632 11.5911 1.40784 11.057 1.40784 10.5C1.40784 9.94305 1.632 9.4089 2.03101 9.01508C2.43002 8.62125 2.9712 8.4 3.53548 8.4V12.6ZM13.4645 12.6V8.4C14.0288 8.4 14.57 8.62125 14.969 9.01508C15.368 9.4089 15.5922 9.94305 15.5922 10.5C15.5922 11.057 15.368 11.5911 14.969 11.9849C14.57 12.3788 14.0288 12.6 13.4645 12.6Z" fill="#464C53"/>
</svg>
