<svg width="18" height="18" viewBox="0 0 18 18" fill="none" xmlns="http://www.w3.org/2000/svg">
<path d="M8.5584 0C6.86571 0 5.21103 0.501941 3.80361 1.44235C2.39619 2.38276 1.29924 3.7194 0.651473 5.28324C0.00370823 6.84708 -0.165777 8.56789 0.164451 10.2281C0.494678 11.8882 1.30979 13.4132 2.5067 14.6101C3.70361 15.807 5.22857 16.6221 6.88874 16.9523C8.5489 17.2826 10.2697 17.1131 11.8336 16.4653C13.3974 15.8176 14.734 14.7206 15.6744 13.3132C16.6148 11.9058 17.1168 10.2511 17.1168 8.55839C17.1143 6.28932 16.2119 4.11388 14.6074 2.50941C13.0029 0.904928 10.8275 0.00245418 8.5584 0ZM8.5584 15.6904C7.14782 15.6904 5.76892 15.2721 4.59607 14.4884C3.42322 13.7048 2.5091 12.5909 1.96929 11.2877C1.42949 9.98449 1.28825 8.55048 1.56344 7.16701C1.83863 5.78354 2.51789 4.51274 3.51532 3.51531C4.51274 2.51788 5.78354 1.83863 7.16701 1.56344C8.55049 1.28825 9.98449 1.42949 11.2877 1.96929C12.5909 2.50909 13.7048 3.42322 14.4884 4.59607C15.2721 5.76892 15.6904 7.14782 15.6904 8.55839C15.6883 10.4493 14.9362 12.2621 13.5992 13.5992C12.2621 14.9362 10.4493 15.6883 8.5584 15.6904Z" fill="#464C53"/>
<path d="M9.06997 3.6109C8.65869 3.53597 8.23597 3.55234 7.83171 3.65886C7.42746 3.76538 7.05155 3.95945 6.7306 4.22732C6.40965 4.4952 6.1515 4.83035 5.97441 5.20904C5.79732 5.58773 5.70562 6.00072 5.70581 6.41877C5.70581 6.60792 5.78095 6.78933 5.9147 6.92308C6.04845 7.05683 6.22986 7.13197 6.41901 7.13197C6.60816 7.13197 6.78957 7.05683 6.92332 6.92308C7.05707 6.78933 7.13221 6.60792 7.13221 6.41877C7.13203 6.20893 7.17815 6.00163 7.26728 5.81166C7.35642 5.62169 7.48637 5.45373 7.64787 5.31975C7.80937 5.18577 7.99844 5.08907 8.2016 5.03655C8.40476 4.98403 8.61701 4.97698 8.82321 5.01591C9.10495 5.0706 9.36399 5.20803 9.56725 5.41065C9.77051 5.61328 9.90875 5.87189 9.96432 6.15346C10.0205 6.44901 9.9817 6.75474 9.8536 7.02694C9.72551 7.29914 9.51463 7.52387 9.25113 7.66901C8.81477 7.92181 8.45419 8.28701 8.20695 8.72654C7.95971 9.16608 7.83486 9.66387 7.84541 10.1681V10.698C7.84541 10.8871 7.92055 11.0685 8.0543 11.2023C8.18805 11.336 8.36946 11.4112 8.55861 11.4112C8.74776 11.4112 8.92917 11.336 9.06292 11.2023C9.19667 11.0685 9.27181 10.8871 9.27181 10.698V10.1681C9.26286 9.91987 9.31945 9.67371 9.43589 9.45435C9.55233 9.235 9.72451 9.05019 9.93508 8.91853C10.4518 8.63473 10.8679 8.19781 11.1262 7.66787C11.3845 7.13793 11.4722 6.54098 11.3774 5.95913C11.2825 5.37728 11.0098 4.8391 10.5966 4.4186C10.1834 3.9981 9.65007 3.71593 9.06997 3.6109Z" fill="#464C53"/>
<path d="M9.27186 12.8376C9.27186 12.4437 8.95255 12.1244 8.55866 12.1244C8.16477 12.1244 7.84546 12.4437 7.84546 12.8376C7.84546 13.2315 8.16477 13.5508 8.55866 13.5508C8.95255 13.5508 9.27186 13.2315 9.27186 12.8376Z" fill="#464C53"/>
</svg>
