<svg width="17" height="17" viewBox="0 0 17 17" fill="none" xmlns="http://www.w3.org/2000/svg">
<path d="M16.3774 6.41258L11.0047 1.03594C10.3397 0.372534 9.43901 0 8.5 0C7.56099 0 6.66029 0.372534 5.99534 1.03594L0.622633 6.41258C0.424601 6.60946 0.267595 6.84371 0.160717 7.10176C0.0538384 7.35981 -0.000786533 7.63652 8.55629e-06 7.91585V14.8737C8.55629e-06 15.4376 0.223892 15.9785 0.622406 16.3772C1.02092 16.776 1.56142 17 2.12501 17H14.875C15.4386 17 15.9791 16.776 16.3776 16.3772C16.7761 15.9785 17 15.4376 17 14.8737V7.91585C17.0008 7.63652 16.9462 7.35981 16.8393 7.10176C16.7324 6.84371 16.5754 6.60946 16.3774 6.41258ZM10.625 15.5825H6.375V12.7942C6.375 12.2303 6.59888 11.6895 6.9974 11.2907C7.39591 10.892 7.93642 10.668 8.5 10.668C9.06358 10.668 9.60409 10.892 10.0026 11.2907C10.4011 11.6895 10.625 12.2303 10.625 12.7942V15.5825ZM15.5833 14.8737C15.5833 15.0617 15.5087 15.242 15.3759 15.3749C15.243 15.5078 15.0629 15.5825 14.875 15.5825H12.0417V12.7942C12.0417 11.8544 11.6685 10.953 11.0043 10.2884C10.3401 9.6238 9.43931 9.25044 8.5 9.25044C7.56069 9.25044 6.65986 9.6238 5.99567 10.2884C5.33148 10.953 4.95834 11.8544 4.95834 12.7942V15.5825H2.12501C1.93714 15.5825 1.75698 15.5078 1.62414 15.3749C1.4913 15.242 1.41667 15.0617 1.41667 14.8737V7.91585C1.41733 7.72802 1.49189 7.548 1.62422 7.41476L6.99692 2.04025C7.39621 1.64259 7.93664 1.41934 8.5 1.41934C9.06336 1.41934 9.60379 1.64259 10.0031 2.04025L15.3758 7.41689C15.5076 7.5496 15.5821 7.72875 15.5833 7.91585V14.8737Z" fill="#464C53"/>
</svg>
