<svg width="10" height="12" viewBox="0 0 10 12" fill="none" xmlns="http://www.w3.org/2000/svg">
<path d="M4.68934 2.79907C4.32039 2.79907 3.95973 2.90848 3.65296 3.11346C3.34619 3.31843 3.10709 3.60977 2.9659 3.95064C2.82471 4.2915 2.78776 4.66658 2.85974 5.02844C2.93172 5.3903 3.10939 5.72269 3.37027 5.98357C3.63116 6.24446 3.96355 6.42213 4.32541 6.4941C4.68727 6.56608 5.06235 6.52914 5.40321 6.38795C5.74407 6.24676 6.03542 6.00766 6.24039 5.70089C6.44537 5.39412 6.55478 5.03346 6.55478 4.66451C6.55478 4.16977 6.35824 3.69528 6.0084 3.34545C5.65856 2.99561 5.18408 2.79907 4.68934 2.79907ZM4.68934 5.59723C4.50486 5.59723 4.32453 5.54253 4.17115 5.44004C4.01776 5.33755 3.89821 5.19188 3.82762 5.02145C3.75702 4.85101 3.73855 4.66348 3.77454 4.48255C3.81053 4.30162 3.89936 4.13542 4.02981 4.00498C4.16025 3.87454 4.32644 3.7857 4.50737 3.74971C4.6883 3.71372 4.87584 3.73219 5.04627 3.80279C5.21671 3.87339 5.36238 3.99293 5.46486 4.14632C5.56735 4.2997 5.62206 4.48004 5.62206 4.66451C5.62206 4.91188 5.52379 5.14912 5.34887 5.32404C5.17395 5.49896 4.93671 5.59723 4.68934 5.59723Z" fill="#464C53"/>
<path d="M4.68925 11.1936C4.29654 11.1956 3.90908 11.1035 3.55929 10.925C3.2095 10.7465 2.90756 10.4867 2.67877 10.1676C0.901473 7.71592 0 5.87287 0 4.68925C0 3.44558 0.494044 2.25285 1.37345 1.37345C2.25285 0.494044 3.44558 0 4.68925 0C5.93291 0 7.12564 0.494044 8.00504 1.37345C8.88445 2.25285 9.37849 3.44558 9.37849 4.68925C9.37849 5.87287 8.47702 7.71592 6.69972 10.1676C6.47093 10.4867 6.16899 10.7465 5.8192 10.925C5.46941 11.1035 5.08195 11.1956 4.68925 11.1936ZM4.68925 1.01806C3.71568 1.01917 2.78231 1.40641 2.09389 2.09483C1.40548 2.78324 1.01824 3.71661 1.01713 4.69018C1.01713 5.62756 1.89995 7.36102 3.50236 9.5711C3.63839 9.75847 3.81686 9.91097 4.02315 10.0161C4.22944 10.1213 4.4577 10.1761 4.68925 10.1761C4.92079 10.1761 5.14905 10.1213 5.35534 10.0161C5.56163 9.91097 5.7401 9.75847 5.87613 9.5711C7.47854 7.36102 8.36136 5.62756 8.36136 4.69018C8.36025 3.71661 7.97301 2.78324 7.2846 2.09483C6.59618 1.40641 5.66281 1.01917 4.68925 1.01806Z" fill="#464C53"/>
</svg>
