<svg width="139" height="144" viewBox="0 0 139 144" fill="none" xmlns="http://www.w3.org/2000/svg">
<path fill-rule="evenodd" clip-rule="evenodd" d="M5.59827 0.532592C3.53622 1.24978 2.20174 2.43244 1.14209 4.48134L0.234375 6.23662V48.9416V91.6466L0.970322 92.2294C1.94646 93.0028 2.90054 92.9657 3.73815 92.1219L4.42383 91.4318V55.4188V19.4062H50.9393H97.4551L98.1405 18.7157C99.0144 17.8359 99.0144 16.7576 98.1405 15.8779L97.4551 15.1874H50.9393H4.42383L4.42439 11.3202C4.42467 7.04662 4.7034 6.03975 6.18982 4.94175L6.97856 4.35928H65.7295H124.48L125.269 4.94175C126.756 6.03975 127.034 7.04662 127.035 11.3202L127.035 15.1874H116.475C106.233 15.1874 105.895 15.2048 105.303 15.7609C104.509 16.5056 104.482 18.0702 105.25 18.8437C105.789 19.3865 106.181 19.4062 116.422 19.4062H127.035V67.1362V114.866L122.916 110.757C119.461 107.311 118.597 106.594 117.564 106.316C116.211 105.953 115.043 106.086 113.783 106.748L112.959 107.181L110.861 105.067L108.762 102.953L109.394 101.643C110.318 99.7278 110.593 97.8966 110.244 95.9914C109.825 93.7133 109.203 92.6408 106.81 90.0795L104.712 87.834L105.684 85.0946C111.136 69.733 107.596 52.8502 96.4588 41.1105C91.8236 36.2243 85.1758 31.9333 79.224 29.9859C74.2413 28.3558 71.733 27.984 65.7295 27.9862C59.6296 27.9885 57.798 28.2551 52.7422 29.876C31.7701 36.6001 19.2824 58.802 24.381 80.2996C26.29 88.3481 29.8815 94.8135 35.7051 100.684C43.3416 108.382 52.9882 112.71 63.7079 113.245C69.4587 113.532 76.2922 112.417 81.1942 110.391L82.9733 109.655L85.1434 111.782C89.1508 115.709 92.7652 116.494 96.8979 114.335L98.1813 113.665L100.219 115.731L102.257 117.797L101.798 118.951C101.546 119.586 101.34 120.482 101.34 120.943V121.781L54.4878 121.781C10.4399 121.78 7.57765 121.751 6.66379 121.288C6.12921 121.018 5.40639 120.367 5.05783 119.841C4.43081 118.896 4.42383 118.784 4.42383 109.627C4.42383 104.238 4.31155 100.158 4.15514 99.8636C3.47031 98.5749 1.19879 98.5544 0.520375 99.831C0.310064 100.227 0.239123 103.518 0.294144 110.321L0.374023 120.234L1.065 121.596C1.89535 123.234 3.1966 124.437 5.10392 125.331L6.51855 125.994L55.2514 125.997L103.984 126L106.982 129.009C109.699 131.737 110.075 132.019 111.002 132.019C112.235 132.019 113.07 131.146 113.07 129.858C113.07 129.13 112.49 128.408 109.3 125.166C107.226 123.059 105.529 121.212 105.529 121.063C105.529 120.611 115.697 110.531 116.152 110.531C116.83 110.531 133.02 127.07 133.772 128.531C134.674 130.283 134.695 133.5 133.815 135.173C132.261 138.13 129.875 139.629 126.775 139.596C124.368 139.57 123.215 139.026 120.875 136.813C119.418 135.435 118.761 135 118.14 135C116.881 135 116.031 135.852 116.031 137.112C116.031 138.059 116.241 138.374 117.994 140.058C121.321 143.252 124.79 144.454 128.723 143.775C131.209 143.345 133.149 142.358 135.036 140.562C137.575 138.143 138.766 135.374 138.766 131.885C138.766 127.981 137.322 125.181 133.199 121.086L131.225 119.124V62.6804V6.23662L130.315 4.467C129.738 3.34369 128.968 2.36128 128.208 1.77769C125.725 -0.128908 130.254 -0.000939713 65.6088 0.00918529C9.64053 0.017904 7.01235 0.0406853 5.59827 0.532592ZM9.98491 8.11987C9.51764 8.50069 9.33945 8.93803 9.33945 9.70303C9.33945 12.0028 12.3444 12.693 13.2206 10.5949C14.1246 8.42981 11.7922 6.64612 9.98491 8.11987ZM19.1933 7.87687C18.3811 8.35472 18.0069 9.69206 18.4339 10.5895C19.5726 12.9818 23.2926 11.4158 22.2857 8.96812C21.7643 7.69997 20.3449 7.19934 19.1933 7.87687ZM27.9376 8.16712C26.6059 9.41643 27.4974 11.8124 29.2938 11.8124C30.3535 11.8124 31.5156 10.7088 31.5156 9.70303C31.5156 8.72484 30.3526 7.59365 29.3466 7.59365C28.9078 7.59365 28.2735 7.85184 27.9376 8.16712ZM60.8988 32.3729C46.2999 34.3568 33.9676 44.6393 29.4226 58.6166C27.9465 63.1566 27.508 66.4956 27.6887 71.8171C27.9035 78.132 28.8481 82.1103 31.3721 87.328C33.3274 91.3702 35.3018 94.1126 38.7681 97.6021C46.3147 105.199 55.2137 108.942 65.7295 108.942C75.7979 108.942 84.7812 105.327 92.0102 98.3682C97.5233 93.0607 101.045 86.9683 102.911 79.5065C103.902 75.5493 104.145 68.6016 103.441 64.3614C100.825 48.5937 88.9053 36.1071 73.4102 32.9014C70.0214 32.2002 64.0308 31.9471 60.8988 32.3729ZM61.7288 38.552C59.3981 38.8566 55.7016 39.808 54.4453 40.4268C53.1131 41.0829 52.5771 42.186 53.0787 43.2396C53.7334 44.6152 54.5671 44.7847 56.9847 44.0338C60.572 42.9192 62.6676 42.6627 66.8741 42.8233C71.2367 42.9901 73.8928 43.5841 77.2399 45.1414C91.6893 51.8641 97.6649 69.3953 90.3004 83.4589C88.7757 86.3707 87.1504 88.5053 84.6507 90.8799C82.1376 93.2672 80.68 94.2653 77.4689 95.797C73.2186 97.8246 71.2437 98.2459 65.8691 98.2715C60.4723 98.2971 58.2751 97.8341 53.8965 95.7498C36.3514 87.3975 32.5761 64.2481 46.5052 50.4269C47.9997 48.9444 48.2734 48.522 48.2734 47.7005C48.2734 46.9852 48.079 46.5741 47.5375 46.1454C46.1966 45.0832 45.5743 45.3382 42.9386 48.0307C38.8734 52.183 36.1944 56.9173 34.6541 62.6708C33.9933 65.1391 33.926 65.8715 33.9254 70.5937C33.9246 75.3817 33.9852 76.0212 34.6845 78.6093C36.1944 84.1958 39.6848 90.1462 43.6332 93.8657C49.8473 99.7191 57.1824 102.672 65.5898 102.705C74.0274 102.738 81.4095 99.8422 87.5979 94.0727C91.7373 90.2134 95.2732 84.2596 96.782 78.6093C97.4693 76.035 97.5327 75.3561 97.5327 70.5937C97.5327 65.8698 97.4657 65.1399 96.8049 62.6708C92.552 46.7847 77.5689 36.482 61.7288 38.552ZM52.6025 51.6256C51.5189 52.1875 47.5227 56.1467 46.9652 57.2107C46.6767 57.7611 46.5789 58.487 46.668 59.419C46.7987 60.7896 46.8619 60.8694 51.587 65.6335L56.3739 70.4595L52.2942 74.5345C47.3395 79.4837 46.5977 80.4385 46.5977 81.8676C46.5977 83.5885 47.0448 84.3389 49.6121 86.9236C51.3977 88.7216 52.3386 89.4543 53.1522 89.6804C55.214 90.2536 55.8156 89.8717 60.8387 84.8033C63.3714 82.2473 65.5722 80.1562 65.7295 80.1562C65.8867 80.1562 68.0876 82.2473 70.6203 84.8033C75.613 89.8413 76.2526 90.2513 78.249 89.6964C78.9171 89.5105 80.0236 88.7188 81.2872 87.5224C84.1497 84.8117 84.8613 83.7368 84.8613 82.1249C84.8613 80.4014 84.3315 79.6952 79.1648 74.5345L75.0851 70.4595L79.872 65.6335C84.5971 60.8694 84.6602 60.7896 84.7909 59.419C84.968 57.5645 84.5742 56.8799 81.7195 54.0803C78.6861 51.105 77.5206 50.6437 75.5607 51.6433C75.0692 51.8942 72.653 54.1073 70.1913 56.5615L65.7155 61.0238L61.3934 56.6484C56.0066 51.1947 54.7819 50.495 52.6025 51.6256ZM52.5995 57.378L50.9382 59.0686L56.1694 64.3415C60.953 69.1638 61.4004 69.6984 61.4004 70.5937C61.4004 71.4889 60.953 72.0235 56.1694 76.8458L50.9382 82.1187L52.5995 83.8093L54.2604 85.4996L59.5922 80.1559C64.0428 75.6958 65.0572 74.8124 65.7295 74.8124C66.4018 74.8124 67.4162 75.6958 71.8668 80.1559L77.1985 85.4996L78.8562 83.8127L80.5138 82.1257L75.2862 76.8352C70.5393 72.0308 70.0586 71.4557 70.0586 70.5796C70.0586 69.7027 70.5354 69.1342 75.2895 64.3415L80.5208 59.0686L78.8595 57.378L77.1985 55.6877L71.8668 61.0314C67.4162 65.4915 66.4018 66.3749 65.7295 66.3749C65.0572 66.3749 64.0428 65.4915 59.5922 61.0314L54.2604 55.6877L52.5995 57.378ZM101.152 94.152C98.0947 98.7952 93.4098 103.508 89.1499 106.225L87.0817 107.545L88.4154 108.919C89.1488 109.675 90.0884 110.474 90.5031 110.694C91.4013 111.17 93.5896 111.219 94.4457 110.782C95.3168 110.338 105.208 100.417 105.688 99.5062C106.21 98.515 106.198 96.6464 105.662 95.5093C105.428 95.0123 104.64 94.0142 103.91 93.2908L102.585 91.9763L101.152 94.152ZM103.435 108.281L101.214 110.531L103.295 112.641L105.377 114.751L107.687 112.437L109.998 110.122L107.98 108.077C106.87 106.952 105.893 106.031 105.809 106.031C105.725 106.031 104.656 107.044 103.435 108.281Z" fill="#677484"/>
</svg>
