<svg width="23" height="23" viewBox="0 0 23 23" fill="none" xmlns="http://www.w3.org/2000/svg">
<g clip-path="url(#clip0_29_680)">
<path d="M22.2899 15.525L19.7982 6.54446C19.2661 4.6234 18.1068 2.93551 16.5047 1.74943C14.9026 0.563342 12.9498 -0.052779 10.9571 -0.000875969C8.96435 0.0510271 7.04627 0.767971 5.50808 2.03585C3.96989 3.30373 2.89998 5.04969 2.46865 6.99584L0.541438 15.6688C0.448186 16.0889 0.45046 16.5247 0.548094 16.9439C0.645728 17.363 0.836231 17.7549 1.10555 18.0907C1.37486 18.4264 1.71612 18.6974 2.10414 18.8836C2.49216 19.0698 2.91704 19.1666 3.34744 19.1667H6.80415C7.0241 20.2499 7.61176 21.2237 8.46757 21.9232C9.32337 22.6227 10.3947 23.0048 11.5 23.0048C12.6053 23.0048 13.6766 22.6227 14.5324 21.9232C15.3882 21.2237 15.9759 20.2499 16.1958 19.1667H19.5212C19.9641 19.1665 20.4009 19.064 20.7976 18.8672C21.1943 18.6703 21.5402 18.3845 21.8083 18.032C22.0764 17.6796 22.2594 17.2699 22.3431 16.835C22.4268 16.4002 22.408 15.9518 22.2899 15.525ZM11.5 21.0833C10.9075 21.0809 10.3302 20.8954 9.84714 20.5523C9.36408 20.2092 8.99881 19.7253 8.80131 19.1667H14.1986C14.0011 19.7253 13.6359 20.2092 13.1528 20.5523C12.6697 20.8954 12.0925 21.0809 11.5 21.0833ZM20.2831 16.8715C20.1937 16.99 20.0778 17.086 19.9447 17.1517C19.8116 17.2174 19.6649 17.2511 19.5164 17.25H3.34744C3.20394 17.25 3.06228 17.2177 2.93291 17.1556C2.80354 17.0935 2.68977 17.0032 2.59999 16.8912C2.51021 16.7793 2.44672 16.6486 2.4142 16.5088C2.38168 16.3691 2.38097 16.2238 2.4121 16.0837L4.33931 7.41079C4.6789 5.88341 5.51932 4.51337 6.72696 3.51847C7.9346 2.52358 9.44016 1.96092 11.0043 1.91994C12.5684 1.87896 14.1014 2.36202 15.3595 3.29233C16.6176 4.22263 17.5286 5.54678 17.9476 7.05429L20.4393 16.0348C20.48 16.1768 20.4871 16.3264 20.4599 16.4716C20.4328 16.6168 20.3723 16.7537 20.2831 16.8715Z" fill="#677484"/>
</g>
<defs>
<clipPath id="clip0_29_680">
<rect width="23" height="23" fill="white"/>
</clipPath>
</defs>
</svg>
