<svg width="43" height="45" viewBox="0 0 43 45" fill="none" xmlns="http://www.w3.org/2000/svg">
<path fill-rule="evenodd" clip-rule="evenodd" d="M4.65059 0.105544C3.5073 0.546052 2.85331 1.70331 3.10705 2.8371C3.28705 3.64138 3.91037 4.38098 4.58994 4.59667L4.78655 4.65907V9.83864V15.0183H4.58493C4.47401 15.0183 4.16921 15.1468 3.90756 15.3039C3.54062 15.5243 3.37573 15.6973 3.18633 16.061L2.94085 16.5325V19.5136C2.94085 22.7298 2.94814 22.7878 3.42196 23.3498C3.92065 23.9412 4.2121 24.023 5.93959 24.0557L7.48805 24.0849L7.5356 25.4183C7.59026 26.955 7.75734 27.6718 8.3064 28.7269C8.98799 30.0363 10.0079 31.029 11.3344 31.6737C12.4016 32.1924 12.978 32.3323 14.3007 32.3938L15.4213 32.4459V33.6198V34.7937H11.4824C7.39532 34.7937 6.83335 34.8327 6.12442 35.166C5.55929 35.4316 4.85678 36.1148 4.59135 36.6568C4.36441 37.1203 4.35079 37.1308 3.8347 37.2374C2.15405 37.5846 0.68461 38.9804 0.161836 40.7263C0.0393167 41.1353 0.0031057 41.5693 0.000205313 42.6599C-0.00383766 44.1943 0.0474026 44.3898 0.553213 44.7693C0.785947 44.9439 0.924199 44.9451 21.0463 44.9451C41.1684 44.9451 41.3067 44.9439 41.5394 44.7693C42.0452 44.3898 42.0965 44.1943 42.0924 42.6599C42.0895 41.5693 42.0533 41.1353 41.9308 40.7263C41.4078 38.9794 39.9387 37.5846 38.2558 37.237C37.751 37.1327 37.7202 37.1108 37.543 36.7299C37.3047 36.2177 36.4963 35.4098 35.983 35.171C35.2544 34.832 34.7089 34.7937 30.6102 34.7937H26.6713V33.6198V32.4459L27.7919 32.3938C28.4082 32.3652 29.1498 32.277 29.4399 32.198C30.2861 31.9675 31.3225 31.4359 32.0378 30.8655L32.7023 30.3358L33.4001 30.2941C33.8709 30.2661 34.2152 30.1923 34.458 30.0674C34.8304 29.8757 35.3195 29.3813 35.4757 29.0383C35.5572 28.8593 35.6434 28.8374 36.4404 28.7936C37.4811 28.7362 38.0898 28.4876 38.5735 27.9226C39.16 27.2375 39.1518 27.3259 39.1518 21.6484V16.5325L38.9063 16.061C38.7169 15.6973 38.552 15.5243 38.1851 15.3039C37.9234 15.1468 37.6186 15.0183 37.5077 15.0183C37.3062 15.0183 37.3061 15.0174 37.3061 13.6675C37.3061 12.1914 37.172 11.2065 36.838 10.2283C35.6229 6.6701 32.5263 4.14359 28.8246 3.68999C27.7398 3.55701 14.3528 3.55701 13.268 3.68999C10.4059 4.04067 8.01029 5.5414 6.26329 8.07802C6.12073 8.28509 6.11396 8.21407 6.10948 6.47955L6.10491 4.66443L6.37491 4.5703C6.81357 4.41737 7.28247 3.98943 7.55959 3.48916C7.78195 3.08776 7.81878 2.92754 7.81878 2.36205C7.81878 1.79656 7.78195 1.63634 7.55959 1.23494C7.26322 0.700036 6.81357 0.308835 6.27762 0.119782C5.84229 -0.0338504 5.03071 -0.0408816 4.65059 0.105544ZM5.09417 1.43067C4.65445 1.62473 4.47894 1.89043 4.47894 2.36205C4.47894 2.84395 4.65753 3.10411 5.1237 3.30134C5.50233 3.46156 5.92315 3.33385 6.23385 2.96471C6.66583 2.45126 6.44812 1.70542 5.78534 1.42856C5.43747 1.28319 5.42807 1.28319 5.09417 1.43067ZM12.9511 5.13553C9.28805 5.79875 6.54911 8.79793 6.19482 12.5338C6.14543 13.0543 6.105 13.8066 6.105 14.2053L6.10491 14.9304H6.79661H7.48831L7.53498 13.5022C7.58868 11.8606 7.74302 11.1814 8.31035 10.091C9.14892 8.47924 10.5009 7.3291 12.3012 6.6962L13.0043 6.44896L20.7344 6.42427C29.2349 6.39702 29.0967 6.38972 30.3876 6.93289C31.1812 7.26687 31.9522 7.79518 32.1065 8.1108C32.2013 8.30468 32.2032 8.4026 32.1164 8.61221C31.8934 9.15063 31.508 9.17023 30.7356 8.68244C30.2753 8.3917 29.1829 7.89916 28.9984 7.89916C28.9754 7.89916 28.9565 7.96261 28.9565 8.04013C28.9565 8.11765 28.8143 8.45164 28.6405 8.78228C28.0784 9.852 26.9867 10.6609 25.802 10.8856C25.18 11.0036 16.9251 11.0053 16.2902 10.8875C15.5133 10.7435 14.6246 10.2526 14.0845 9.66928C13.6422 9.19159 13.1362 8.3198 13.1362 8.03565C13.1362 7.74649 11.7186 8.37298 10.9603 8.99718C10.0058 9.78301 9.38833 10.7441 9.091 11.9066C8.92541 12.554 8.91741 12.9015 8.91741 19.4128C8.91741 25.9242 8.92541 26.2716 9.091 26.919C9.3515 27.9373 9.73119 28.5849 10.5393 29.3888C11.35 30.1953 12.0149 30.5856 13.0128 30.8408C13.6625 31.0069 14.0074 31.0143 21.0384 31.0131C28.9228 31.0117 28.8839 31.0137 29.9403 30.5592L30.3824 30.369L29.9111 30.2505C28.6248 29.927 27.903 28.706 28.2551 27.4487C28.397 26.9416 29.0097 26.2515 29.5051 26.0409C29.8092 25.9116 30.1883 25.8753 31.5273 25.847L33.1752 25.8124V19.1989C33.1752 12.7534 33.1706 12.5678 32.9901 11.8903C32.7183 10.869 32.7107 10.8235 32.7729 10.576C32.8489 10.2731 33.2875 10.0834 33.6331 10.2039C34.169 10.3907 34.4938 11.5495 34.5577 13.5022L34.6043 14.9304H35.296H35.9877L35.9869 14.2493C35.9856 13.0093 35.8204 11.6266 35.5832 10.87C34.6365 7.85011 32.1633 5.66928 29.0743 5.1306C28.0073 4.94454 13.9825 4.94885 12.9511 5.13553ZM14.6291 8.07248C14.9097 8.62259 15.3042 9.01449 15.8448 9.27992L16.3442 9.52513H21.0463H25.7485L26.2479 9.27992C26.7884 9.01449 27.1829 8.62259 27.4636 8.07248L27.6417 7.72338H21.0463H14.4509L14.6291 8.07248ZM12.0815 12.5509C11.2837 12.7974 10.553 13.4586 10.2715 14.1885C10.1155 14.5927 10.1039 14.8992 10.1039 18.6218C10.1039 22.5212 10.1086 22.6309 10.2918 23.0271C10.5614 23.6102 11.055 24.1166 11.6279 24.398L12.1254 24.6423H21.0463H29.9672L30.4648 24.398C31.0376 24.1166 31.5312 23.6102 31.8009 23.0271C31.984 22.6309 31.9887 22.5212 31.9887 18.6218C31.9887 14.8992 31.9771 14.5927 31.8212 14.1885C31.6087 13.6375 31.0673 13.0477 30.4981 12.7473L30.0551 12.5134L21.1782 12.4981C16.2958 12.4898 12.2023 12.5135 12.0815 12.5509ZM12.0725 14.0752C11.4555 14.4874 11.4609 14.4453 11.4869 18.6658C11.51 22.4163 11.5117 22.4472 11.7062 22.7199C12.1285 23.3119 11.5968 23.28 21.0463 23.28C30.4958 23.28 29.9641 23.3119 30.3865 22.7199C30.581 22.4472 30.5826 22.4163 30.6057 18.6658C30.6318 14.4453 30.6371 14.4874 30.0201 14.0752L29.7215 13.8757H21.0463H12.3712L12.0725 14.0752ZM14.8237 16.2539C14.2083 16.5614 13.9026 16.8849 13.5948 17.5546C13.408 17.9609 13.3838 18.1175 13.4185 18.6971C13.4645 19.4686 13.6509 19.9015 14.1515 20.4001C14.85 21.0959 15.9058 21.345 16.8407 21.0345C17.465 20.8271 18.2302 20.0744 18.4381 19.4631C19.1982 17.228 16.9207 15.2059 14.8237 16.2539ZM25.0303 16.1984C23.8068 16.7681 23.2154 18.1716 23.6546 19.4631C23.8549 20.0521 24.6258 20.823 25.2148 21.0233C26.1562 21.3435 27.2162 21.1149 27.8932 20.4458C28.4412 19.9042 28.6269 19.4883 28.6742 18.6971C28.7088 18.1175 28.6846 17.9609 28.4979 17.5546C28.1901 16.8849 27.8844 16.5614 27.269 16.2539C26.5578 15.8985 25.7191 15.8777 25.0303 16.1984ZM4.54978 16.5487L4.30315 16.7606L4.27573 19.2513C4.24611 21.9449 4.26861 22.2347 4.5278 22.4939C4.68275 22.6489 4.82927 22.6648 6.10491 22.6648H7.51116V19.5007V16.3367H6.15378C4.84579 16.3367 4.78734 16.3444 4.54978 16.5487ZM34.5815 19.5007V22.6648H35.9877C37.2634 22.6648 37.4099 22.6489 37.5648 22.4939C37.824 22.2347 37.8465 21.9449 37.8169 19.2513L37.7895 16.7606L37.5429 16.5487C37.3053 16.3444 37.2468 16.3367 35.9389 16.3367H34.5815V19.5007ZM15.6318 17.3985C14.3899 17.7588 14.5536 19.6189 15.838 19.7423C16.6376 19.8191 17.1782 19.3244 17.1788 18.515C17.179 18.1772 17.1291 18.0436 16.9083 17.792C16.7563 17.619 16.4958 17.4442 16.315 17.394C15.9514 17.293 15.9965 17.2926 15.6318 17.3985ZM25.7355 17.3986C25.5832 17.4432 25.336 17.6193 25.1861 17.7901C24.9635 18.0437 24.9136 18.1766 24.9139 18.515C24.914 18.7709 24.9798 19.0371 25.0858 19.2108C25.6974 20.214 27.3158 19.7614 27.3158 18.5874C27.3158 17.7501 26.5365 17.1639 25.7355 17.3986ZM36.0536 24.0489L34.5815 24.0753V25.1174V26.1596L34.8726 26.3816C35.0327 26.5037 35.26 26.7853 35.3778 27.0072L35.592 27.4109H36.2379C36.6538 27.4109 36.9919 27.3597 37.1868 27.2672C37.6881 27.0293 37.7773 26.748 37.8173 25.2795C37.8506 24.0564 37.8434 23.9843 37.6892 24.0028C37.5994 24.0136 36.8633 24.0344 36.0536 24.0489ZM17.3818 26.4806C17.1698 26.6631 17.1369 26.7529 17.1478 27.12C17.1639 27.6703 17.3437 28.0917 17.7579 28.5501C18.4187 29.2815 18.5021 29.3005 21.0463 29.3005C23.5906 29.3005 23.674 29.2815 24.3347 28.5501C24.749 28.0917 24.9287 27.6703 24.9449 27.12C24.9557 26.7529 24.9228 26.6631 24.7108 26.4806C24.5752 26.3638 24.4051 26.2683 24.333 26.2683C24.0705 26.2683 23.685 26.5382 23.6403 26.7533C23.6155 26.8733 23.5733 27.0754 23.5467 27.2024C23.5201 27.3295 23.3846 27.547 23.2459 27.6858L22.9934 27.9382H21.0463H19.0992L18.8468 27.6858C18.708 27.547 18.5725 27.3295 18.5459 27.2024C18.5193 27.0754 18.4771 26.8733 18.4523 26.7533C18.4077 26.5382 18.0222 26.2683 17.7596 26.2683C17.6875 26.2683 17.5174 26.3638 17.3818 26.4806ZM30.0425 27.3223C29.5413 27.5245 29.408 28.2778 29.8034 28.6733L30.0352 28.905H31.901C33.6374 28.905 33.7824 28.8928 33.9915 28.7282C34.2715 28.508 34.3696 28.0995 34.2258 27.7525C34.0322 27.285 33.8051 27.2345 31.9272 27.2406C30.9942 27.2437 30.1462 27.2804 30.0425 27.3223ZM16.7397 33.6072V34.7937H21.0463H25.353V33.6072V32.4206H21.0463H16.7397V33.6072ZM6.94497 36.3305C6.29643 36.5626 5.84572 37.0397 5.66686 37.6837C5.61615 37.8663 5.57836 39.2085 5.5781 40.8362L5.57757 43.6706H7.76877H9.95997L9.98801 42.2722L10.016 40.8739L10.2853 40.5364C10.7924 39.9011 11.0067 39.8474 13.0339 39.8474H14.8212L15.0415 40.1034C15.2126 40.3022 15.2501 40.4201 15.2094 40.6308C15.105 41.1721 14.9699 41.2097 13.1295 41.2097C11.5811 41.2097 11.4664 41.2209 11.3814 41.3797C11.3314 41.4732 11.2905 42.0269 11.2905 42.6102V43.6706H21.0463H30.8022V42.6102C30.8022 42.0269 30.7612 41.4732 30.7112 41.3797C30.6224 41.2139 30.4551 41.2097 23.9835 41.2097H17.3469L17.1312 40.9939C16.858 40.7208 16.8567 40.4089 17.1276 40.094L17.3397 39.8474H24.093C30.6722 39.8474 30.855 39.852 31.1921 40.0232C31.3823 40.1199 31.6591 40.3508 31.8073 40.5364L32.0766 40.8739L32.1046 42.2722L32.1327 43.6706H34.3282H36.5237L36.4974 40.6604C36.4735 37.9203 36.4564 37.6225 36.307 37.3425C36.0765 36.9104 35.8238 36.6523 35.4164 36.4331L35.0649 36.2439L21.1782 36.2253C9.4132 36.2093 7.23852 36.2255 6.94497 36.3305ZM3.62481 38.7433C2.7184 39.0977 1.91587 39.9229 1.56817 40.8581C1.4678 41.1282 1.40813 41.637 1.38 42.4621L1.33887 43.6706H2.75514H4.17132V41.1218C4.17132 39.72 4.1417 38.5748 4.1054 38.5771C4.0691 38.5794 3.85289 38.6541 3.62481 38.7433ZM37.9213 41.1159V43.6706H39.3276H40.7338V42.6784C40.7338 41.1248 40.4398 40.2825 39.6193 39.4849C39.2645 39.1401 38.6009 38.7567 38.1191 38.6181L37.9213 38.5611V41.1159Z" fill="#677484"/>
</svg>
