<svg width="16" height="16" viewBox="0 0 16 16" fill="none" xmlns="http://www.w3.org/2000/svg">
<path d="M15.708 14.2968L12.611 11.1987C14.9283 8.10223 14.2965 3.71356 11.1997 1.39641C8.10291 -0.920737 3.71387 -0.288926 1.39653 2.80759C-0.920813 5.90411 -0.28895 10.2928 2.80783 12.6099C5.29542 14.4713 8.71207 14.4713 11.1997 12.6099L14.298 15.708C14.6874 16.0973 15.3187 16.0973 15.708 15.708C16.0973 15.3187 16.0973 14.6875 15.708 14.2982L15.708 14.2968ZM7.02958 12.012C4.27731 12.012 2.04618 9.78103 2.04618 7.02899C2.04618 4.27695 4.27731 2.04601 7.02958 2.04601C9.78185 2.04601 12.013 4.27695 12.013 7.02899C12.01 9.77978 9.78063 12.009 7.02958 12.012Z" fill="#5F6F9D"/>
</svg>
