<svg width="20" height="20" viewBox="0 0 20 20" fill="none" xmlns="http://www.w3.org/2000/svg">
<g clip-path="url(#clip0_29_335)">
<path d="M19.2659 0.734991C18.9671 0.432597 18.5954 0.212371 18.1866 0.0955883C17.7779 -0.0211941 17.346 -0.0305844 16.9325 0.0683246L3.5992 2.87666C2.83134 2.98196 2.10814 3.29956 1.51103 3.79367C0.913921 4.28778 0.466623 4.93879 0.219508 5.67338C-0.0276071 6.40797 -0.0647234 7.19696 0.112339 7.9515C0.289401 8.70605 0.673609 9.39617 1.2217 9.94416L2.65336 11.375C2.73085 11.4525 2.7923 11.5444 2.8342 11.6457C2.87609 11.7469 2.89761 11.8554 2.89753 11.965V14.605C2.89937 14.9762 2.98482 15.3422 3.14753 15.6758L3.14086 15.6817L3.16253 15.7033C3.40671 16.1943 3.80551 16.5913 4.29753 16.8333L4.3192 16.855L4.32503 16.8483C4.65866 17.011 5.02467 17.0965 5.39586 17.0983H8.03586C8.25674 17.0981 8.46865 17.1857 8.62503 17.3417L10.0559 18.7725C10.4396 19.1605 10.8964 19.4687 11.3998 19.6794C11.9033 19.8901 12.4435 19.999 12.9892 20C13.444 19.9994 13.8957 19.9251 14.3267 19.78C15.0546 19.541 15.7012 19.1033 16.1936 18.5164C16.6859 17.9295 17.0045 17.2167 17.1134 16.4583L19.9259 3.09582C20.0299 2.67886 20.0238 2.24201 19.9081 1.82813C19.7924 1.41425 19.5711 1.03755 19.2659 0.734991ZM3.83336 10.1983L2.40086 8.76749C2.06729 8.44196 1.83351 8.02803 1.72693 7.57429C1.62036 7.12055 1.64543 6.64582 1.7992 6.20582C1.94827 5.75443 2.22387 5.35535 2.59319 5.05604C2.96252 4.75674 3.41004 4.56981 3.88253 4.51749L17.0834 1.73832L4.56253 14.2608V11.965C4.56379 11.6369 4.5 11.3119 4.37484 11.0086C4.24968 10.7054 4.06564 10.43 3.83336 10.1983ZM15.4759 16.1733C15.4119 16.6336 15.2209 17.0669 14.9243 17.4247C14.6277 17.7824 14.2373 18.0504 13.7968 18.1986C13.3564 18.3468 12.8833 18.3693 12.4308 18.2635C11.9783 18.1578 11.5642 17.928 11.235 17.6L9.8017 16.1667C9.57034 15.934 9.29515 15.7496 8.99205 15.624C8.68895 15.4984 8.36395 15.4342 8.03586 15.435H5.74003L18.2625 2.91666L15.4759 16.1733Z" fill="#6978A3"/>
</g>
<defs>
<clipPath id="clip0_29_335">
<rect width="20" height="20" fill="white"/>
</clipPath>
</defs>
</svg>
