<svg width="18" height="18" viewBox="0 0 18 18" fill="none" xmlns="http://www.w3.org/2000/svg">
<path d="M17.1176 8.03847C17.0144 6.3696 16.4252 4.76739 15.4225 3.42937C14.4197 2.09134 13.0474 1.076 11.4746 0.508509C9.90175 -0.0589827 8.19725 -0.153812 6.5712 0.23571C4.94515 0.625233 3.46862 1.48208 2.32366 2.70062C1.1787 3.91915 0.415346 5.44611 0.127713 7.09324C-0.159919 8.74037 0.0407416 10.4357 0.704958 11.9701C1.36918 13.5046 2.46791 14.8112 3.86571 15.7287C5.26351 16.6463 6.89927 17.1348 8.57132 17.1339H13.5516C14.4971 17.133 15.4035 16.757 16.0721 16.0884C16.7406 15.4199 17.1166 14.5134 17.1176 13.5679V8.03847ZM15.6912 13.5679C15.6912 14.1354 15.4658 14.6796 15.0645 15.0808C14.6633 15.4821 14.1191 15.7075 13.5516 15.7075H8.57132C7.56495 15.7071 6.56997 15.4945 5.65127 15.0837C4.73256 14.6729 3.91076 14.073 3.23944 13.3233C2.56488 12.5739 2.05834 11.689 1.75377 10.7278C1.44921 9.76663 1.35367 8.75145 1.47356 7.75034C1.66287 6.17127 2.37233 4.70012 3.49009 3.5688C4.60786 2.43747 6.07035 1.71033 7.64702 1.502C7.95457 1.46345 8.26421 1.44392 8.57418 1.44352C10.2363 1.43898 11.8469 2.01971 13.1237 3.08388C13.8693 3.70361 14.4814 4.4683 14.9227 5.33162C15.3641 6.19493 15.6255 7.13887 15.6912 8.10623V13.5679Z" fill="#464C53"/>
<path d="M5.70636 6.43586H8.55916C8.74831 6.43586 8.92972 6.36072 9.06347 6.22697C9.19722 6.09322 9.27236 5.91181 9.27236 5.72266C9.27236 5.53351 9.19722 5.3521 9.06347 5.21835C8.92972 5.0846 8.74831 5.00946 8.55916 5.00946H5.70636C5.51721 5.00946 5.33581 5.0846 5.20206 5.21835C5.0683 5.3521 4.99316 5.53351 4.99316 5.72266C4.99316 5.91181 5.0683 6.09322 5.20206 6.22697C5.33581 6.36072 5.51721 6.43586 5.70636 6.43586Z" fill="#464C53"/>
<path d="M11.412 7.8623H5.70636C5.51721 7.8623 5.33581 7.93745 5.20206 8.0712C5.0683 8.20495 4.99316 8.38635 4.99316 8.5755C4.99316 8.76466 5.0683 8.94606 5.20206 9.07981C5.33581 9.21356 5.51721 9.2887 5.70636 9.2887H11.412C11.6011 9.2887 11.7825 9.21356 11.9163 9.07981C12.05 8.94606 12.1252 8.76466 12.1252 8.5755C12.1252 8.38635 12.05 8.20495 11.9163 8.0712C11.7825 7.93745 11.6011 7.8623 11.412 7.8623Z" fill="#464C53"/>
<path d="M11.412 10.7151H5.70636C5.51721 10.7151 5.33581 10.7902 5.20206 10.924C5.0683 11.0577 4.99316 11.2391 4.99316 11.4283C4.99316 11.6174 5.0683 11.7988 5.20206 11.9326C5.33581 12.0663 5.51721 12.1415 5.70636 12.1415H11.412C11.6011 12.1415 11.7825 12.0663 11.9163 11.9326C12.05 11.7988 12.1252 11.6174 12.1252 11.4283C12.1252 11.2391 12.05 11.0577 11.9163 10.924C11.7825 10.7902 11.6011 10.7151 11.412 10.7151Z" fill="#464C53"/>
</svg>
